<svg width="1184" height="36" viewBox="0 0 1184 36" fill="none" xmlns="http://www.w3.org/2000/svg">
<path d="M5.68893 18.0001L2.84324 20.8433L0 18.0001L2.84324 15.1568L5.68893 18.0001ZM12.588 11.0961L17.4603 15.9709L20.3036 13.1277L12.588 5.41211L4.87236 13.1277L7.7156 15.9709L12.588 11.0961ZM22.3351 15.1568L19.4919 18.0001L22.3351 20.8433L25.1759 18.0001L22.3351 15.1568ZM12.588 24.904L7.7156 20.0316L4.87236 22.8724L12.588 30.588L20.3036 22.8724L17.4603 20.0316L12.588 24.904ZM12.588 20.8433L15.4312 18.0001L12.588 15.1568L9.74472 18.0001L12.588 20.8433ZM42.5944 21.1163V21.0769C42.5944 19.2224 41.6106 18.2952 40.0094 17.6852C40.9933 17.1318 41.8246 16.2636 41.8246 14.7067V14.6674C41.8246 12.4981 40.0881 11.0961 37.267 11.0961H30.8624V24.904H37.4294C40.5456 24.904 42.5993 23.6422 42.5993 21.1163H42.5944ZM38.8067 15.2134C38.8067 16.239 37.9582 16.6744 36.6177 16.6744H33.8212V13.7598H36.8194C38.1008 13.7598 38.8116 14.2714 38.8116 15.179L38.8067 15.2134ZM39.5766 20.7375C39.5766 21.7632 38.7674 22.2354 37.4245 22.2354H33.8212V19.2028H37.331C38.8903 19.2028 39.5815 19.7758 39.5815 20.7031L39.5766 20.7375ZM48.9769 24.904V11.0961H45.9296V24.904H48.9769ZM65.3059 24.904V11.0961H62.2978V19.5988L55.8292 11.0961H53.0278V24.904H56.026V16.1259L62.711 24.904H65.3059ZM82.1316 24.904L76.2041 10.9977H73.4027L67.4875 24.904H70.5841L71.8507 21.8074H77.6897L78.9514 24.904H82.1316ZM76.6099 19.1241H72.9305L74.7653 14.6477L76.6099 19.1241ZM96.611 24.904V11.0961H93.603V19.5988L87.1319 11.0961H84.3329V24.904H87.3286V16.1259L94.0162 24.904H96.611ZM112.291 22.6756L110.36 20.7228C109.275 21.7066 108.309 22.3387 106.73 22.3387C104.363 22.3387 102.725 20.371 102.725 18.0001V17.9607C102.725 15.5946 104.403 13.6614 106.73 13.6614C108.109 13.6614 109.189 14.2517 110.261 15.2183L112.187 12.99C110.906 11.7282 109.349 10.86 106.744 10.86C102.504 10.86 99.5452 14.0746 99.5452 17.9927V18.032C99.5452 21.9968 102.563 25.1327 106.626 25.1327C109.285 25.1401 110.862 24.1932 112.281 22.6756H112.291ZM125.252 24.904V22.1985H117.746V19.2938H124.256V16.5883H117.746V13.7992H125.144V11.0937H114.728V24.9015L125.252 24.904Z" fill="#8A87A9"/>
<path d="M196.332 20.8423C195.42 20.3159 194.394 20.1633 193.377 20.1278C192.524 20.098 191.251 19.5514 191.251 17.9993C191.251 16.843 192.188 15.9124 193.377 15.8708C194.394 15.8353 195.42 15.6826 196.332 15.1564C197.151 14.6837 197.83 14.0039 198.303 13.1852C198.776 12.3666 199.025 11.4379 199.025 10.4926C199.025 9.54726 198.776 8.61861 198.303 7.79995C197.83 6.98129 197.15 6.30148 196.332 5.82884C195.513 5.3562 194.584 5.10739 193.639 5.10742C192.694 5.10745 191.765 5.35631 190.947 5.829C190.128 6.30169 189.448 6.98154 188.975 7.80022C188.503 8.61891 188.254 9.54758 188.254 10.4929C188.254 11.5363 188.625 12.4964 189.099 13.387C189.497 14.136 189.698 15.5261 188.333 16.3146C187.317 16.9013 186.049 16.5298 185.415 15.5162C184.88 14.66 184.234 13.8578 183.33 13.3356C182.511 12.863 181.583 12.6142 180.637 12.6142C179.692 12.6142 178.764 12.863 177.945 13.3357C177.126 13.8083 176.447 14.4881 175.974 15.3067C175.501 16.1254 175.252 17.054 175.252 17.9993C175.252 18.9446 175.501 19.8732 175.974 20.6918C176.447 21.5105 177.126 22.1903 177.945 22.6629C178.764 23.1355 179.692 23.3844 180.637 23.3844C181.583 23.3844 182.511 23.1356 183.33 22.6629C184.234 22.141 184.88 21.3393 185.415 20.4837C185.854 19.781 186.95 18.8855 188.332 19.6842C189.347 20.2703 189.661 21.5546 189.098 22.6124C188.625 23.5028 188.254 24.4627 188.254 25.5059C188.254 26.4512 188.503 27.3798 188.976 28.1985C189.448 29.0171 190.128 29.6969 190.947 30.1696C191.765 30.6422 192.694 30.8911 193.639 30.8911C194.585 30.8911 195.513 30.6423 196.332 30.1696C197.151 29.697 197.83 29.0172 198.303 28.1985C198.776 27.3799 199.024 26.4512 199.024 25.5059C199.024 24.5607 198.776 23.632 198.303 22.8134C197.83 21.9947 197.15 21.3149 196.332 20.8423H196.332Z" fill="#8A87A9"/>
<path d="M215.537 14.2731C215.257 14.1799 214.667 14.1177 214.077 14.1177C212.307 14.1177 210.412 15.5519 210.412 17.3222V25.7649H206.375V10.7013H210.257V12.2231C211.158 11.105 212.804 10.3907 214.636 10.3907C215.094 10.394 215.551 10.4355 216.003 10.5149L215.537 14.2731ZM220.102 2.78125C221.562 2.78125 222.742 3.89942 222.742 5.35913C222.742 6.81896 221.562 7.937 220.102 7.937C218.642 7.937 217.462 6.81896 217.462 5.35913C217.462 3.89954 218.643 2.78125 220.102 2.78125ZM222.121 25.7649H218.083V10.7013H222.121V25.7649ZM234.048 10.39C232.446 10.3697 230.886 10.9083 229.638 11.9133V10.7012H225.755V33.2183H229.793V24.7091C230.941 25.6163 232.367 26.0991 233.831 26.076C236.067 26.076 238.21 25.0813 239.545 23.5283C240.726 22.1614 241.439 20.2989 241.439 18.2486C241.439 13.8071 238.147 10.39 234.048 10.39ZM233.557 22.41C231.049 22.41 229.401 20.6793 229.401 18.2617C229.401 15.8442 231.049 14.1134 233.557 14.1134C235.698 14.1134 237.434 15.971 237.434 18.2618C237.434 20.5526 235.698 22.4102 233.557 22.4102L233.557 22.41ZM265.945 25.7649H261.907V3.71295H265.945V25.7649ZM282.406 23.3732C280.946 25.1126 278.555 26.0754 276.225 26.0754C271.722 26.0754 268.337 22.9697 268.337 18.2486C268.337 14.0556 271.194 10.3907 275.667 10.3907C279.828 10.3907 282.779 13.9003 282.779 18.0933C282.781 18.4783 282.75 18.8629 282.686 19.2425H272.25C272.467 21.3544 274.176 22.8142 276.319 22.8142C278.027 22.8142 279.393 21.8514 280.108 21.0749L282.406 23.3732ZM278.648 16.2919C278.524 14.9564 277.313 13.6519 275.666 13.6519C273.989 13.6519 272.623 14.9253 272.436 16.2919H278.648ZM252.125 10.39C250.522 10.3697 248.963 10.9083 247.714 11.9133V10.7012H243.831V33.2183H247.869V24.7091C249.018 25.6163 250.444 26.0992 251.907 26.076C254.144 26.076 256.286 25.0813 257.622 23.5283C258.802 22.1614 259.516 20.2989 259.516 18.2486C259.516 13.8071 256.224 10.39 252.125 10.39ZM251.634 22.41C249.126 22.41 247.477 20.6793 247.477 18.2617C247.477 15.8442 249.126 14.1133 251.634 14.1133C253.775 14.1133 255.511 15.971 255.511 18.2617C255.511 20.5524 253.775 22.4102 251.634 22.4102V22.41Z" fill="#8A87A9"/>
<path fill-rule="evenodd" clip-rule="evenodd" d="M362.982 28.4701C363.95 28.4701 364.857 28.2884 365.711 27.9356C365.711 27.9677 367.45 30.7364 367.482 30.7471C365.942 31.5936 364.218 32.0241 362.471 31.9979C357.127 32.0086 353.252 28.3846 353.252 22.6225C353.252 16.8177 357.315 13.215 362.471 13.215C364.294 13.215 365.742 13.6213 367.19 14.4124L365.523 17.2987C364.648 16.946 363.752 16.7856 362.815 16.7856C359.659 16.7856 357.211 18.8488 357.211 22.6225C357.211 26.1931 359.575 28.4701 362.982 28.4701ZM376.45 13.215C381.7 13.215 385.502 17.0315 385.502 22.6225C385.502 28.1815 381.7 31.9979 376.44 31.9979C371.232 31.9979 367.43 28.1815 367.43 22.6225C367.43 17.0315 371.232 13.215 376.45 13.215ZM376.45 16.6573C373.523 16.6573 371.388 18.9771 371.388 22.6225C371.388 26.2358 373.523 28.5556 376.45 28.5556C379.45 28.5556 381.555 26.2358 381.555 22.6225C381.555 18.9771 379.45 16.6573 376.45 16.6573ZM387.992 31.5917V13.6213H391.909V31.581H387.992V31.5917ZM387.471 8.09439C387.512 7.45504 387.788 6.8555 388.244 6.41744C388.699 5.97938 389.3 5.73561 389.924 5.73561C390.549 5.73561 391.15 5.97938 391.605 6.41744C392.061 6.8555 392.337 7.45504 392.377 8.09439C392.378 8.76568 392.121 9.4103 391.664 9.88995C391.206 10.3696 390.583 10.6461 389.93 10.6601C389.276 10.6461 388.653 10.3696 388.195 9.88995C387.738 9.4103 387.481 8.76568 387.482 8.09439H387.471ZM395.325 14.7544C397.891 13.7648 400.606 13.2438 403.346 13.215C407.825 13.215 410.659 14.9576 410.659 20.0248V31.5917H406.794V20.3989C406.794 17.8012 405.221 16.8711 403.044 16.8711C401.659 16.8711 400.273 17.0635 399.242 17.3949V31.581H395.336V14.7544H395.325ZM413.94 4H417.857V14.1023C418.69 13.6533 420.305 13.215 421.846 13.215C426.909 13.215 430.7 16.529 430.7 22.3018C430.7 28.1066 426.95 31.9979 420.471 31.9979C417.94 31.9979 415.721 31.4634 413.94 30.822V4ZM417.857 28.1815C418.607 28.4273 419.596 28.5556 420.586 28.5556C424.18 28.5556 426.752 26.5245 426.752 22.3873C426.752 18.8916 424.336 16.8284 421.377 16.8284C419.836 16.8284 418.648 17.2346 417.857 17.6836V28.1815ZM442.023 19.5437C442.023 17.5981 440.586 16.7001 438.648 16.7001C436.638 16.7001 435.055 17.3094 433.596 18.1646V14.6689C435.341 13.6959 437.298 13.1955 439.284 13.215C443.117 13.215 445.846 14.84 445.846 19.3406V31.2282C444.18 31.6772 441.815 31.9551 439.836 31.9551C435.294 31.9551 431.971 30.544 431.971 26.4817C431.971 22.8256 435.013 21.0403 440.075 21.0403H442.013V19.5437H442.023ZM442.023 23.7129H440.357C437.627 23.7129 435.846 24.5361 435.846 26.3641C435.846 28.2242 437.513 28.9512 439.877 28.9512C440.471 28.9512 441.305 28.8763 442.013 28.7587V23.7236L442.023 23.7129ZM448.69 26.7276C450.216 27.9688 452.088 28.68 454.034 28.7587C455.773 28.7587 456.919 28.1494 456.919 26.7276C456.919 25.263 455.888 24.7392 453.638 24.1298C449.992 23.2746 448.461 21.778 448.461 18.6457C448.461 15.0003 451.148 13.215 454.711 13.215C456.69 13.215 458.263 13.6533 459.732 14.5941V18.2822C458.336 17.1388 456.611 16.5 454.825 16.4649C453.127 16.4649 452.221 17.3201 452.221 18.496C452.221 19.672 452.961 20.2706 454.982 20.8479C458.982 21.7352 460.711 23.2746 460.711 26.5138C460.711 30.2981 457.909 31.9979 454.117 31.9979C452.215 32.0369 450.34 31.5336 448.7 30.544V26.7276H448.69ZM466.075 23.5205V23.5953C466.315 26.8024 468.992 28.5556 471.732 28.5556C474.138 28.5556 475.877 27.9783 477.617 26.8024V30.3302C476.034 31.4741 473.7 31.9979 471.45 31.9979C465.992 31.9979 462.284 28.4273 462.284 22.7508C462.284 17.0315 465.919 13.215 470.742 13.215C475.846 13.215 478.252 16.5825 478.252 21.4893V23.5205H466.065H466.075ZM474.575 20.9227C474.492 18.1219 473.148 16.5825 470.617 16.5825C468.367 16.5825 466.711 18.2074 466.19 20.9227H474.575Z" fill="#8A87A9"/>
<path d="M552.041 18.9961C550.428 25.4648 543.876 29.4016 537.405 27.7885C530.938 26.1757 527 19.6236 528.614 13.1552C530.226 6.68575 536.779 2.74859 543.247 4.36134C549.717 5.97409 553.654 12.527 552.041 18.9961Z" fill="#252333"/>
<path d="M546.072 14.531C546.313 12.8761 545.089 11.9864 543.417 11.3929L543.96 9.15107L542.635 8.81098L542.107 10.9937C541.759 10.9043 541.401 10.82 541.045 10.7364L541.577 8.5393L540.254 8.19922L539.711 10.4403C539.422 10.3727 539.139 10.3058 538.865 10.2355L538.866 10.2285L537.04 9.75856L536.687 11.2161C536.687 11.2161 537.67 11.4481 537.649 11.4625C538.186 11.6005 538.283 11.9662 538.266 12.2561L537.648 14.8101C537.685 14.8198 537.733 14.8338 537.786 14.8555C537.742 14.8443 537.695 14.8318 537.646 14.8198L536.78 18.3975C536.714 18.5654 536.548 18.8172 536.173 18.7216C536.186 18.7415 535.21 18.4741 535.21 18.4741L534.552 20.0361L536.276 20.4788C536.597 20.5616 536.911 20.6483 537.221 20.7299L536.672 22.9974L537.996 23.3375L538.538 21.0941C538.9 21.1951 539.251 21.2884 539.594 21.3762L539.053 23.6091L540.378 23.9492L540.926 21.686C543.185 22.1264 544.883 21.9487 545.598 19.8441C546.174 18.1495 545.569 17.172 544.381 16.5346C545.246 16.329 545.898 15.7425 546.072 14.531ZM543.046 18.9031C542.636 20.5977 539.867 19.6816 538.969 19.4519L539.696 16.4479C540.594 16.6788 543.474 17.1359 543.046 18.9031ZM543.456 14.5065C543.082 16.048 540.777 15.2648 540.029 15.0728L540.689 12.3483C541.436 12.5403 543.844 12.8986 543.456 14.5065Z" fill="#8A87A9"/>
<path d="M568.459 10.6804C569.354 10.6804 570.128 10.8409 570.779 11.1561C571.432 11.4744 571.971 11.9031 572.404 12.4423C572.831 12.9843 573.148 13.6178 573.353 14.3437C573.557 15.0718 573.659 15.8544 573.659 16.6922C573.659 17.9791 573.423 19.1949 572.947 20.341C572.471 21.4888 571.825 22.4844 571.004 23.3336C570.183 24.1817 569.214 24.8504 568.096 25.3444C566.98 25.8387 565.766 26.0859 564.464 26.0859C564.295 26.0859 563.999 26.0811 563.581 26.0724C563.162 26.0638 562.681 26.0207 562.143 25.9478C561.601 25.8722 561.028 25.7604 560.423 25.6105C559.818 25.4635 559.243 25.2574 558.702 24.9957L563.539 4.67142L567.872 4L566.14 11.2124C566.511 11.0453 566.884 10.9158 567.257 10.8216C567.63 10.7287 568.031 10.6804 568.459 10.6804ZM564.825 22.649C565.477 22.649 566.092 22.4885 566.669 22.1733C567.249 21.8578 567.749 21.4318 568.167 20.9013C568.586 20.3683 568.917 19.7679 569.159 19.0972C569.401 18.4265 569.523 17.7267 569.523 16.9987C569.523 16.1043 569.373 15.4066 569.075 14.9023C568.778 14.4 568.226 14.1473 567.426 14.1473C567.163 14.1473 566.825 14.1974 566.406 14.2868C565.986 14.3817 565.61 14.5788 565.272 14.8754L563.428 22.5348C563.539 22.5544 563.638 22.5731 563.722 22.5907C563.804 22.6097 563.895 22.6231 563.985 22.6325C564.081 22.6432 564.19 22.6487 564.322 22.6487C564.455 22.6487 564.62 22.649 564.825 22.649ZM578.152 25.6968H574.014L577.509 10.9921H581.675L578.152 25.6968ZM580.166 9.20052C579.588 9.20052 579.064 9.02861 578.6 8.68409C578.131 8.34165 577.899 7.81452 577.899 7.10409C577.899 6.71331 577.979 6.34671 578.136 6.00081C578.296 5.65561 578.505 5.35838 578.766 5.10569C579.028 4.85507 579.331 4.65485 579.674 4.504C580.02 4.35556 580.388 4.28134 580.78 4.28134C581.358 4.28134 581.879 4.45325 582.345 4.79777C582.81 5.14401 583.043 5.67114 583.043 6.37777C583.043 6.76993 582.964 7.13792 582.805 7.48312C582.648 7.82833 582.439 8.12555 582.177 8.37824C581.918 8.6292 581.612 8.82873 581.269 8.97821C580.923 9.12906 580.556 9.20052 580.166 9.20052ZM585.301 7.32847L589.635 6.65705L588.571 10.9914H593.213L592.374 14.4014H587.761L586.532 19.5449C586.419 19.9737 586.354 20.3741 586.336 20.7463C586.316 21.1201 586.363 21.4412 586.475 21.7115C586.586 21.9824 586.786 22.1913 587.076 22.339C587.365 22.4892 587.778 22.5648 588.32 22.5648C588.766 22.5648 589.201 22.5223 589.622 22.4381C590.04 22.3553 590.463 22.24 590.892 22.0891L591.201 25.2774C590.642 25.4825 590.036 25.6589 589.384 25.8073C588.73 25.9578 587.957 26.0303 587.062 26.0303C585.777 26.0303 584.78 25.8394 584.07 25.4593C583.361 25.0765 582.86 24.5535 582.56 23.8914C582.264 23.2317 582.132 22.4713 582.169 21.6145C582.207 20.7556 582.337 19.8529 582.56 18.9022L585.301 7.32847ZM593.03 19.8249C593.03 18.5583 593.235 17.3639 593.645 16.2458C594.054 15.1267 594.644 14.148 595.408 13.3081C596.17 12.4724 597.098 11.8103 598.191 11.3242C599.278 10.8409 600.496 10.5972 601.838 10.5972C602.678 10.5972 603.428 10.6766 604.088 10.8358C604.75 10.9963 605.35 11.2037 605.892 11.464L604.465 14.709C604.093 14.5578 603.706 14.4245 603.305 14.3037C602.905 14.1805 602.416 14.1211 601.838 14.1211C600.457 14.1211 599.365 14.5971 598.552 15.5461C597.743 16.4957 597.335 17.774 597.335 19.3775C597.335 20.3279 597.54 21.0963 597.952 21.6842C598.361 22.2721 599.117 22.5645 600.216 22.5645C600.757 22.5645 601.28 22.5078 601.781 22.3974C602.286 22.2855 602.732 22.1447 603.124 21.9783L603.433 25.3047C602.91 25.5077 602.333 25.691 601.7 25.8515C601.065 26.0065 600.31 26.0869 599.434 26.0869C598.278 26.0869 597.299 25.9178 596.499 25.5847C595.698 25.2464 595.036 24.7972 594.515 24.2283C593.991 23.6581 593.614 22.9922 593.382 22.2279C593.149 21.4643 593.03 20.662 593.03 19.8249ZM611.413 26.0869C610.425 26.0869 609.567 25.9364 608.839 25.6385C608.114 25.3406 607.513 24.9226 607.037 24.3806C606.561 23.8414 606.205 23.2024 605.961 22.4661C605.717 21.7301 605.6 20.9151 605.6 20.022C605.6 18.9018 605.78 17.782 606.143 16.6652C606.505 15.5461 607.042 14.5405 607.752 13.6468C608.457 12.7516 609.327 12.0198 610.35 11.4492C611.373 10.8824 612.55 10.5972 613.871 10.5972C614.841 10.5972 615.694 10.7481 616.432 11.046C617.166 11.3432 617.771 11.7647 618.249 12.3039C618.722 12.8459 619.081 13.4821 619.323 14.2195C619.566 14.9541 619.687 15.7712 619.687 16.6649C619.687 17.7816 619.509 18.9015 619.157 20.0217C618.805 21.1363 618.282 22.1443 617.591 23.0401C616.902 23.9339 616.04 24.6654 615.006 25.2336C613.972 25.8018 612.773 26.0869 611.413 26.0869ZM613.481 14.1214C612.867 14.1214 612.325 14.2995 611.861 14.6513C611.395 15.0072 611.003 15.4546 610.688 15.9942C610.369 16.5361 610.132 17.1271 609.972 17.7696C609.814 18.4134 609.736 19.022 609.736 19.6002C609.736 20.5333 609.887 21.2599 610.183 21.7829C610.483 22.3031 611.021 22.5648 611.805 22.5648C612.42 22.5648 612.96 22.3881 613.427 22.0325C613.89 21.6793 614.282 21.2316 614.6 20.691C614.917 20.1518 615.155 19.5591 615.315 18.9156C615.472 18.2739 615.551 17.6618 615.551 17.0847C615.551 16.154 615.401 15.4256 615.103 14.9033C614.805 14.3831 614.263 14.1214 613.481 14.1214ZM624.196 25.6968H620.054L623.549 10.9921H627.717L624.196 25.6968ZM626.206 9.20052C625.629 9.20052 625.106 9.02861 624.642 8.68409C624.176 8.34165 623.942 7.81452 623.942 7.10409C623.942 6.71331 624.022 6.34671 624.18 6.00081C624.337 5.65561 624.548 5.35838 624.809 5.10569C625.069 4.85507 625.375 4.65485 625.718 4.504C626.062 4.35556 626.43 4.28134 626.821 4.28134C627.399 4.28134 627.922 4.45325 628.387 4.79777C628.853 5.14401 629.088 5.67114 629.088 6.37777C629.088 6.76993 629.004 7.13792 628.848 7.48312C628.692 7.82833 628.481 8.12555 628.221 8.37824C627.958 8.6292 627.657 8.82873 627.313 8.97821C626.966 9.12906 626.599 9.20052 626.206 9.20052ZM630.699 11.6608C631.013 11.569 631.364 11.4585 631.746 11.3384C632.128 11.2182 632.556 11.1064 633.034 11.0056C633.507 10.9017 634.04 10.8175 634.626 10.7522C635.213 10.6856 635.881 10.6531 636.624 10.6531C638.806 10.6531 640.311 11.2887 641.141 12.5559C641.971 13.8232 642.115 15.5575 641.576 17.7557L639.673 25.6955H635.507L637.352 17.9228C637.465 17.4375 637.553 16.9683 637.618 16.5099C637.684 16.0556 637.68 15.6552 637.603 15.3086C637.53 14.9661 637.357 14.6858 637.088 14.4687C636.815 14.255 636.402 14.1477 635.843 14.1477C635.303 14.1477 634.754 14.2057 634.194 14.3175L631.482 25.6951H627.315L630.699 11.6608Z" fill="#8A87A9"/>
<path d="M726.656 32.403C734.611 32.403 741.06 25.9543 741.06 17.9994C741.06 10.0444 734.611 3.5957 726.656 3.5957C718.701 3.5957 712.252 10.0444 712.252 17.9994C712.252 25.9543 718.701 32.403 726.656 32.403Z" fill="#252333"/>
<path d="M728.192 19.3289V19.3265C728.092 19.3335 727.578 19.3636 726.434 19.3636C725.52 19.3636 724.878 19.3381 724.651 19.3265V19.3289C721.134 19.1737 718.51 18.5624 718.51 17.8283C718.51 17.0965 721.136 16.4828 724.651 16.3277V18.7198C724.88 18.736 725.54 18.7754 726.45 18.7754C727.543 18.7754 728.09 18.7291 728.192 18.7198V16.33C731.702 16.4875 734.319 17.0988 734.319 17.8306C734.319 18.5624 731.7 19.1737 728.192 19.3312V19.3289ZM728.192 16.0822V13.9425H733.09V10.6797H719.756V13.9425H724.653V16.0822C720.673 16.2652 717.681 17.0525 717.681 17.9973C717.681 18.9421 720.675 19.7295 724.653 19.9147V26.7738H728.194V19.9147C732.168 19.7318 735.155 18.9444 735.155 17.9996C735.155 17.0571 732.168 16.2675 728.194 16.0845" fill="#8A87A9"/>
<path d="M751.596 11.0076V14.4673H754.959V17.0632H751.573V22.3268C751.573 23.4893 752.215 24.0566 753.155 24.0566C753.625 24.0566 754.169 23.9084 754.614 23.6861L755.454 26.2566C754.591 26.6016 753.873 26.7498 752.958 26.7753C750.313 26.8749 748.584 25.3673 748.584 22.3268V17.0632H746.31V14.4673H748.584V11.3295L751.596 11.0076ZM809.565 14.3052L809.788 15.7132C810.728 14.2056 811.988 13.9833 813.224 13.9833C814.484 13.9833 815.695 14.4766 816.362 15.1435L815.003 17.7626C814.384 17.2438 813.817 16.9706 812.828 16.9706C811.247 16.9706 809.788 17.8112 809.788 20.0597V26.4858H806.773V14.3006L809.565 14.3052ZM802.176 18.976C801.979 17.3944 800.743 16.6024 799.013 16.6024C797.382 16.6024 796.046 17.3944 795.602 18.976H802.176ZM795.553 21.4723C795.75 22.9798 797.061 24.0682 799.186 24.0682C800.298 24.0682 801.757 23.6468 802.449 22.9312L804.376 24.8347C803.091 26.1686 800.99 26.8123 799.135 26.8123C794.935 26.8123 792.436 24.2164 792.436 20.3121C792.436 16.6047 794.958 13.9347 798.913 13.9347C802.991 13.9347 805.538 16.4565 805.068 21.4723H795.553ZM782.256 9.1875V15.9586C783.345 14.5507 784.679 14.1292 786.063 14.1292C789.523 14.1292 791.056 16.4773 791.056 20.0621V26.4881H788.041V20.0875C788.041 17.8621 786.878 16.9243 785.271 16.9243C783.491 16.9243 782.256 18.4318 782.256 20.2612V26.4905H779.241V9.18982L782.256 9.1875ZM774.249 10.8687V14.3284H777.611V16.9243H774.225V22.1879C774.225 23.3504 774.869 23.9177 775.807 23.9177C776.277 23.9177 776.821 23.7695 777.266 23.5472L778.107 26.1176C777.243 26.4627 776.525 26.6109 775.61 26.6363C772.966 26.7359 771.236 25.2261 771.236 22.1879V16.9243H768.962V14.3284H771.236V11.1906L774.249 10.8687ZM765.919 18.976C765.722 17.3944 764.486 16.6024 762.756 16.6024C761.126 16.6024 759.789 17.3944 759.345 18.976H765.919ZM759.296 21.4723C759.493 22.9798 760.804 24.0682 762.929 24.0682C764.041 24.0682 765.5 23.6468 766.192 22.9312L768.119 24.8347C766.834 26.1686 764.733 26.8123 762.878 26.8123C758.675 26.8123 756.179 24.2164 756.179 20.3121C756.179 16.6047 758.701 13.9347 762.654 13.9347C766.732 13.9347 769.277 16.4565 768.809 21.4723H759.296Z" fill="#8A87A9"/>
<path d="M902.662 1.5C893.602 1.5 886.253 8.88819 886.253 17.9996C886.253 19.8211 886.547 21.573 887.089 23.2116H891.996V9.32905L902.662 20.0541L913.329 9.32905V23.2116H918.236C918.779 21.573 919.072 19.8211 919.072 17.9996C919.072 8.88819 911.724 1.5 902.662 1.5Z" fill="#8A87A9"/>
<path d="M895.554 17.8398V26.5752H888.64C891.52 31.3272 896.723 34.5008 902.661 34.5008C908.6 34.5008 913.803 31.3272 916.683 26.5752H909.769V17.8398L902.661 24.9866L895.554 17.8398Z" fill="#8A87A9"/>
<path d="M1007.34 22.6976C1006.47 23.5959 1005.42 24.0435 1004.18 24.0435C1003.09 24.0435 1002.12 23.6983 1001.28 23.0043C1000.19 22.1195 999.648 20.9145 999.648 19.3898C999.648 18.0248 1000.08 16.8967 1000.94 16.0114C1001.81 15.123 1002.87 14.6817 1004.14 14.6817C1005.39 14.6817 1006.46 15.136 1007.33 16.0432C1008.21 16.9508 1008.65 18.0606 1008.65 19.3737C1008.65 20.6905 1008.21 21.7962 1007.34 22.6976ZM1009.16 14.2306C1007.77 12.8217 1006.1 12.1152 1004.16 12.1152C1002.89 12.1152 1001.69 12.4385 1000.59 13.0837C999.476 13.7293 998.605 14.6048 997.972 15.711C997.34 16.8167 997.022 18.0284 997.022 19.3447C997.022 21.3107 997.702 23.0075 999.063 24.4369C1000.42 25.8686 1002.13 26.5813 1004.18 26.5813C1006.14 26.5813 1007.81 25.8878 1009.19 24.4941C1010.57 23.1036 1011.25 21.4005 1011.25 19.3898C1011.25 17.3631 1010.56 15.6439 1009.16 14.2306Z" fill="#8A87A9"/>
<path d="M952.248 22.6976C951.381 23.5959 950.329 24.0435 949.092 24.0435C947.999 24.0435 947.032 23.6983 946.187 23.0043C945.099 22.1195 944.557 20.9145 944.557 19.3898C944.557 18.0248 944.989 16.8967 945.853 16.0114C946.714 15.123 947.779 14.6817 949.048 14.6817C950.3 14.6817 951.365 15.136 952.239 16.0432C953.116 16.9508 953.555 18.0606 953.555 19.3737C953.555 20.6905 953.12 21.7962 952.248 22.6976ZM954.07 14.2306C952.677 12.8217 951.012 12.1152 949.073 12.1152C947.795 12.1152 946.6 12.4385 945.494 13.0837C944.384 13.7293 943.513 14.6048 942.881 15.711C942.248 16.8167 941.931 18.0284 941.931 19.3447C941.931 21.3107 942.611 23.0075 943.972 24.4369C945.332 25.8686 947.039 26.5813 949.092 26.5813C951.053 26.5813 952.722 25.8878 954.099 24.4941C955.475 23.1036 956.161 21.4005 956.161 19.3898C956.161 17.3631 955.465 15.6439 954.07 14.2306Z" fill="#8A87A9"/>
<path d="M992.043 17.4257C991.712 17.6573 991.556 17.7713 990.682 17.7713H987.242V14.8123H990.575C991.244 14.8123 991.362 14.8628 991.636 14.9665C991.909 15.0671 992.126 15.2352 992.29 15.4664C992.453 15.698 992.533 15.973 992.533 16.2882C992.533 16.8185 992.37 17.1976 992.043 17.4257ZM992.456 20.15C993.367 19.8209 994.051 19.338 994.505 18.7008C994.959 18.0601 995.182 17.2678 995.182 16.3155C995.182 15.4127 994.979 14.6276 994.568 13.9668C994.158 13.3059 993.614 12.8329 992.94 12.5476C992.266 12.2623 991.135 12.1184 989.544 12.1184H984.506V26.5782H987.242V20.4553H989.63L992.867 26.5782H995.86L992.456 20.15ZM972.241 12.1152H981.565V14.8091H974.961V17.7686H981.565V20.4155H974.961V23.8709H981.565V26.5755H972.241V12.1152ZM957.795 12.1152H960.415L966.584 21.6299V12.1152H969.32V26.575H966.691L960.531 17.0908V26.575H957.795V12.1152Z" fill="#8A87A9"/>
<path d="M925.957 12.1152H928.636L931.959 22.2009L935.332 12.1152H937.971L940.394 26.5755H937.755L936.21 17.4431L933.15 26.5755H930.738L927.718 17.4431L926.143 26.5755H923.474L925.957 12.1152Z" fill="#8A87A9"/>
<path d="M1082.62 26.2203C1081.01 27.775 1078.68 28.7468 1076.84 28.8925C1075.52 29.0383 1074.16 29.0383 1072.85 28.8925C1070.91 28.6496 1069.5 28.1151 1068.09 27.5807C1068.77 26.9005 1069.5 25.9773 1069.79 25.1514C1069.99 24.6655 1069.94 24.1311 1069.74 23.6938C1068.24 20.6328 1068.92 16.9889 1071.35 14.6081C1073.09 12.859 1075.52 12.0817 1078 12.3732C1079.8 12.6161 1081.45 13.3935 1082.76 14.6567C1085.87 17.8148 1085.78 23.1107 1082.62 26.2203ZM1084.51 12.6647C1083.39 11.5472 1082.08 10.7212 1080.67 10.1868C1081.5 7.80607 1084.42 6.93151 1084.42 6.93151C1084.42 6.93151 1077.71 3.4333 1070.33 4.8423C1067.85 5.23099 1065.47 6.73717 1063.77 8.72921C1060.02 13.0534 1060.51 19.6125 1064.88 23.3051C1065.56 23.8881 1067.07 24.7627 1067.07 24.8113C1066.1 27.3378 1062.94 28.018 1062.94 28.018C1062.94 28.018 1067.12 30.6416 1072.71 31.3218C1074.21 31.5162 1075.77 31.5648 1077.37 31.3704C1079.95 31.1761 1082.52 29.7671 1084.51 27.8722C1088.69 23.6938 1088.74 16.8917 1084.51 12.6647Z" fill="#8A87A9"/>
<path d="M1156.01 11.7327C1156.01 10.9068 1155.28 10.2266 1154.5 10.2266C1153.68 10.2266 1153 10.9068 1153 11.7327C1153 12.5587 1153.73 13.2389 1154.5 13.2389C1155.28 13.2389 1156.01 12.6073 1156.01 11.7327ZM1155.72 14.7451H1153.29V25.4827H1155.72V14.7451ZM1143.67 15.9597C1143.08 15.1338 1142.02 14.5507 1140.8 14.5507C1139.59 14.5507 1138.62 14.988 1138.08 15.6682V14.7937H1135.65V25.5312H1138.08V18.2919C1138.32 17.223 1139.15 16.6885 1140.02 16.6885C1141.24 16.6885 1141.82 17.5631 1141.82 18.8749V25.4827H1144.25V18.2919C1144.49 17.223 1145.32 16.6885 1146.19 16.6885C1147.41 16.6885 1147.99 17.5631 1147.99 18.8749V25.4827H1150.42V18.5348C1150.42 16.1055 1149.11 14.5507 1146.92 14.5507C1145.42 14.5507 1144.4 15.0852 1143.67 15.9597ZM1128.8 16.5914C1127.44 16.5914 1126.47 17.4173 1126.18 18.9721H1131.08C1131.04 17.6603 1130.31 16.5914 1128.8 16.5914ZM1131.13 22.1788H1133.37C1132.98 24.3166 1131.42 25.7742 1128.8 25.7742C1125.79 25.7742 1123.7 23.4906 1123.7 20.1868C1123.7 16.9801 1125.84 14.5507 1128.75 14.5507C1131.81 14.5507 1133.46 16.6885 1133.46 19.8467V20.7212H1126.08C1126.18 22.6161 1127.25 23.7336 1128.8 23.7336C1130.02 23.7336 1130.89 23.1991 1131.13 22.1788ZM1117.53 16.5914C1116.17 16.5914 1115.2 17.4173 1114.9 18.9721H1119.81C1119.76 17.6603 1119.03 16.5914 1117.53 16.5914ZM1119.86 22.1788H1122.1C1121.71 24.3166 1120.15 25.7742 1117.53 25.7742C1114.52 25.7742 1112.43 23.4906 1112.43 20.1868C1112.43 16.9801 1114.56 14.5507 1117.48 14.5507C1120.54 14.5507 1122.19 16.6885 1122.19 19.8467V20.7212H1114.81C1114.9 22.6161 1115.97 23.7336 1117.53 23.7336C1118.74 23.7336 1119.62 23.1991 1119.86 22.1788ZM1159.65 22.6161C1159.65 24.7539 1161.01 25.7742 1162.96 25.7742C1163.73 25.7742 1164.37 25.6284 1164.8 25.3855V23.1991C1164.46 23.442 1163.88 23.6364 1163.39 23.6364C1162.57 23.6364 1162.08 23.2477 1162.08 22.3731V16.7857H1164.51V14.7937H1162.08V11.9271H1159.65V13.579C1159.65 14.4536 1158.92 14.7937 1158.44 14.7937H1157.95V16.7857H1159.65V22.6161ZM1105.72 22.6161C1105.72 24.7539 1107.08 25.7742 1109.03 25.7742C1109.8 25.7742 1110.44 25.6284 1110.87 25.3855V23.1991C1110.53 23.442 1109.95 23.6364 1109.46 23.6364C1108.64 23.6364 1108.15 23.2477 1108.15 22.3731V16.7857H1110.58V14.7937H1108.15V11.9271H1105.72V13.579C1105.72 14.4536 1104.99 14.7937 1104.51 14.7937H1104.02V16.7857H1105.72V22.6161ZM1093.96 22.4217C1094.3 24.5109 1096.05 25.7742 1098.58 25.7742C1101.01 25.7742 1102.81 24.4624 1102.81 22.3246C1102.81 20.7698 1101.88 19.7009 1100.04 19.2636L1097.75 18.7292C1096.98 18.5348 1096.64 18.2433 1096.64 17.7574C1096.64 16.9315 1097.51 16.5428 1098.39 16.5428C1099.5 16.5428 1100.13 17.0286 1100.38 17.7089H1102.76C1102.37 15.7654 1100.96 14.5507 1098.43 14.5507C1096.05 14.5507 1094.35 15.9597 1094.35 17.9032C1094.35 19.6523 1095.52 20.4783 1097.03 20.867L1099.26 21.4014C1100.18 21.5958 1100.52 21.9359 1100.52 22.5189C1100.52 23.3449 1099.79 23.7821 1098.68 23.7821C1097.61 23.7821 1096.78 23.3449 1096.54 22.4217H1093.96Z" fill="#8A87A9"/>
</svg>
