<svg width="95" height="95" viewBox="0 0 95 95" fill="none" xmlns="http://www.w3.org/2000/svg">
<path d="M43.4238 72.792C43.4238 69.9407 42.8622 67.1174 41.7711 64.4832C40.68 61.849 39.0807 59.4555 37.0646 57.4393C35.0484 55.4232 32.6549 53.8239 30.0207 52.7328C27.3865 51.6417 24.5632 51.0801 21.7119 51.0801V72.792H43.4238Z" fill="white"/>
<path d="M51.5762 21.7119C51.5762 24.5632 52.1378 27.3865 53.2289 30.0207C54.32 32.6549 55.9193 35.0484 57.9354 37.0646C59.9516 39.0807 62.3451 40.68 64.9793 41.7711C67.6135 42.8622 70.4368 43.4238 73.2881 43.4238V21.7119H51.5762Z" fill="white"/>
<path d="M21.9617 22.1289H41.2611H41.8435C41.8435 22.1289 41.7277 24.2127 41.8435 25.5396C42.022 27.587 42.3806 28.7182 42.9993 30.6695L43.0081 30.6972C43.493 32.2269 43.8429 33.0623 44.5055 34.5238C45.2014 36.059 45.6347 36.9051 46.5019 38.3504C47.4154 39.8726 47.9474 40.7276 49.0808 42.0939C50.5184 43.8269 51.4757 44.688 53.2401 46.0869C54.857 47.3687 55.9008 47.9025 57.6491 48.9984C59.0935 49.904 59.9751 50.2971 61.3925 51.2445C63.2995 52.5191 66.051 54.8216 66.051 54.8216C67.6484 56.3954 68.842 58.0402 69.628 59.3137C70.4141 60.5871 70.8116 61.338 71.375 62.7244C72.0991 64.5061 72.3479 65.5764 72.706 67.466C73.1008 69.5496 73.2051 72.8732 73.2051 72.8732H53.2401C53.2401 72.8732 53.3827 70.433 53.2401 68.8802C52.9691 65.9294 52.3058 64.3261 51.2436 61.5597C50.3375 59.1996 48.4153 55.7366 48.4153 55.7366C46.9023 53.425 43.7568 50.4126 43.7568 50.4126C42.065 48.8343 41.0126 48.0517 39.0983 46.7524C37.4111 45.6072 36.296 45.2316 34.6062 44.0904C32.8399 42.8976 31.8296 42.2265 30.2804 40.7629C27.5788 38.2105 26.2552 36.449 24.6237 33.1096C22.6867 29.1451 21.9617 22.1289 21.9617 22.1289Z" fill="white"/>
<circle cx="47.5831" cy="47.5863" r="8.31874" fill="#1A1A41"/>
<path d="M43.3518 49.1397C43.1282 49.1397 42.9139 49.1104 42.7089 49.0519C42.5039 48.9906 42.3389 48.9121 42.2138 48.8163L42.4334 48.3291C42.5532 48.4143 42.6943 48.4849 42.8566 48.5408C43.0217 48.594 43.1881 48.6206 43.3558 48.6206C43.4835 48.6206 43.586 48.6086 43.6632 48.5847C43.7431 48.5581 43.8017 48.5221 43.8389 48.4769C43.8762 48.4316 43.8948 48.3797 43.8948 48.3211C43.8948 48.2466 43.8655 48.188 43.807 48.1455C43.7484 48.1002 43.6712 48.0643 43.5754 48.0376C43.4796 48.0084 43.3731 47.9817 43.2559 47.9578C43.1415 47.9312 43.0257 47.8992 42.9086 47.862C42.7941 47.8247 42.6889 47.7768 42.5931 47.7182C42.4973 47.6596 42.4187 47.5824 42.3575 47.4866C42.299 47.3908 42.2697 47.2683 42.2697 47.1193C42.2697 46.9595 42.3123 46.8145 42.3974 46.684C42.4853 46.5509 42.6157 46.4458 42.7888 46.3686C42.9645 46.2887 43.1841 46.2488 43.4476 46.2488C43.6233 46.2488 43.7963 46.2701 43.9667 46.3127C44.1371 46.3526 44.2875 46.4138 44.4179 46.4963L44.2183 46.9875C44.0878 46.913 43.9574 46.8584 43.8269 46.8238C43.6965 46.7865 43.5687 46.7679 43.4436 46.7679C43.3185 46.7679 43.216 46.7825 43.1362 46.8118C43.0563 46.8411 42.9991 46.8797 42.9645 46.9276C42.9298 46.9728 42.9125 47.0261 42.9125 47.0873C42.9125 47.1592 42.9418 47.2178 43.0004 47.263C43.059 47.3056 43.1362 47.3402 43.232 47.3668C43.3278 47.3934 43.433 47.4201 43.5474 47.4467C43.6646 47.4733 43.7804 47.5039 43.8948 47.5385C44.0119 47.5731 44.1184 47.6197 44.2143 47.6783C44.3101 47.7368 44.3873 47.814 44.4459 47.9099C44.5071 48.0057 44.5377 48.1268 44.5377 48.2732C44.5377 48.4303 44.4938 48.574 44.4059 48.7045C44.3181 48.8349 44.1863 48.9401 44.0106 49.0199C43.8376 49.0998 43.618 49.1397 43.3518 49.1397ZM45.616 49.0918V47.9498L45.7637 48.3411L44.5339 46.2967H45.2207L46.163 47.8659H45.7677L46.7141 46.2967H47.349L46.1191 48.3411L46.2629 47.9498V49.0918H45.616ZM47.5962 49.0918V46.2967H48.1313L49.7804 48.3092H49.5208V46.2967H50.1597V49.0918H49.6286L47.9755 47.0793H48.2351V49.0918H47.5962ZM52.1587 49.1397C51.943 49.1397 51.7421 49.1051 51.5557 49.0359C51.372 48.964 51.2123 48.8629 51.0766 48.7324C50.9408 48.602 50.8343 48.4489 50.7571 48.2732C50.6826 48.0975 50.6453 47.9045 50.6453 47.6942C50.6453 47.484 50.6826 47.291 50.7571 47.1153C50.8343 46.9396 50.9408 46.7865 51.0766 46.6561C51.215 46.5256 51.376 46.4258 51.5597 46.3566C51.7434 46.2847 51.9444 46.2488 52.1627 46.2488C52.4049 46.2488 52.6232 46.2914 52.8175 46.3766C53.0145 46.4591 53.1795 46.5815 53.3126 46.7439L52.8974 47.1272C52.8015 47.0181 52.6951 46.9369 52.5779 46.8837C52.4608 46.8278 52.333 46.7998 52.1946 46.7998C52.0642 46.7998 51.9444 46.8211 51.8352 46.8637C51.7261 46.9063 51.6316 46.9675 51.5517 47.0474C51.4719 47.1272 51.4093 47.2217 51.3641 47.3309C51.3215 47.44 51.3002 47.5611 51.3002 47.6942C51.3002 47.8273 51.3215 47.9485 51.3641 48.0576C51.4093 48.1668 51.4719 48.2613 51.5517 48.3411C51.6316 48.421 51.7261 48.4822 51.8352 48.5248C51.9444 48.5674 52.0642 48.5887 52.1946 48.5887C52.333 48.5887 52.4608 48.5621 52.5779 48.5088C52.6951 48.4529 52.8015 48.3691 52.8974 48.2573L53.3126 48.6406C53.1795 48.803 53.0145 48.9268 52.8175 49.0119C52.6232 49.0971 52.4036 49.1397 52.1587 49.1397Z" fill="white"/>
</svg>
