<svg width="395" height="369" viewBox="0 0 395 369" fill="none" xmlns="http://www.w3.org/2000/svg">
<g clip-path="url(#clip0_524_28997)">
<rect width="393.75" height="368.55" transform="translate(0.299988)" fill="#171D33" fill-opacity="0.32"/>
<path d="M28.1225 342.107L26.2955 343.304V341.565L28.3745 340.091H30.1637V349.1H28.1225V342.107ZM32.1969 340.091H34.2381V343.77H37.8543V340.091H39.8955V349.1H37.8543V345.383H34.2381V349.1H32.1969V340.091Z" fill="#748497"/>
<path d="M92.9374 342.107L91.1104 343.304V341.565L93.1894 340.091H94.9786V349.1H92.9374V342.107ZM99.8846 347.512C100.8 347.512 101.472 347.268 101.901 346.781C102.337 346.286 102.556 345.567 102.556 344.627V344.526C102.556 343.602 102.342 342.896 101.913 342.409C101.493 341.922 100.809 341.678 99.8594 341.678H99.053V347.512H99.8846ZM97.0118 340.091H99.9602C100.75 340.091 101.439 340.196 102.027 340.406C102.623 340.607 103.119 340.897 103.513 341.275C103.9 341.661 104.19 342.128 104.383 342.674C104.584 343.22 104.685 343.829 104.685 344.501V344.601C104.685 345.273 104.584 345.887 104.383 346.441C104.19 346.995 103.896 347.47 103.501 347.865C103.106 348.26 102.61 348.566 102.014 348.785C101.426 348.995 100.737 349.1 99.9476 349.1H97.0118V340.091Z" fill="#2850E7"/>
<path d="M157.018 342.107L155.191 343.304V341.565L157.27 340.091H159.059V349.1H157.018V342.107ZM160.387 340.091H162.453L163.865 346.315L165.402 340.091H167.141L168.741 346.353L170.202 340.091H172.092L169.9 349.1H167.821L166.196 342.875L164.545 349.1H162.579L160.387 340.091Z" fill="#748497"/>
<path d="M224.6 342.107L222.773 343.304V341.565L224.852 340.091H226.641V349.1H224.6V342.107ZM228.674 340.091H231.37L233.475 345.698L235.554 340.091H238.2V349.1H236.171V342.774L233.676 349.1H233.008L230.501 342.774V349.1H228.674V340.091Z" fill="#748497"/>
<path d="M291.88 342.107L290.053 343.304V341.565L292.132 340.091H293.921V349.1H291.88V342.107ZM298.121 345.219L295.148 340.091H297.39L299.217 343.543L301.007 340.091H302.985L300.175 345.219V349.1H298.121V345.219Z" fill="#748497"/>
<path d="M356.76 340.091H359.418L362.342 349.1H360.212L359.595 347.096H356.331L355.714 349.1H353.799L356.76 340.091ZM356.772 345.647H359.154L357.969 341.754L356.772 345.647ZM363.368 339.524H365.182V349.1H363.368V339.524ZM366.795 339.524H368.609V349.1H366.795V339.524Z" fill="#748497"/>
<mask id="path-7-inside-1_524_28997" fill="white">
<path fill-rule="evenodd" clip-rule="evenodd" d="M-6.00005 206.85V249.9H-12.3V379.05H406.65L406.65 271.95L406.65 249.9L406.65 100.275L398.397 114.975L390.144 100.275L381.891 114.975L373.638 84.0004L365.385 123.375L357.132 107.625L348.879 81.3754L339.975 90.3004L332.373 53.0254L324.12 96.6004L315.867 81.3754L307.614 105L299.361 113.4L291.108 105.525L282.855 117.075L274.602 151.2L266.349 131.775L258.096 155.4L249.843 147L241.59 172.725L233.337 163.8L225.084 189.525L216.831 151.2L208.578 131.775L200.325 172.725L192.072 166.425L183.819 151.2L175.566 180.6L167.313 190.575L159.06 173.25L150.807 189L142.554 140.175L134.301 159.075L126.048 124.425L117.795 173.25L109.542 164.85L101.289 190.575L93.0359 198.45L84.7829 185.85L76.5299 184.275L68.2769 165.375L60.0239 160.65L51.7709 176.925L43.5179 165.375L35.2649 203.7L27.0119 191.625L18.7589 211.05L10.506 203.7L2.25295 224.175L-6.00005 206.85Z"/>
</mask>
<path fill-rule="evenodd" clip-rule="evenodd" d="M-6.00005 206.85V249.9H-12.3V379.05H406.65L406.65 271.95L406.65 249.9L406.65 100.275L398.397 114.975L390.144 100.275L381.891 114.975L373.638 84.0004L365.385 123.375L357.132 107.625L348.879 81.3754L339.975 90.3004L332.373 53.0254L324.12 96.6004L315.867 81.3754L307.614 105L299.361 113.4L291.108 105.525L282.855 117.075L274.602 151.2L266.349 131.775L258.096 155.4L249.843 147L241.59 172.725L233.337 163.8L225.084 189.525L216.831 151.2L208.578 131.775L200.325 172.725L192.072 166.425L183.819 151.2L175.566 180.6L167.313 190.575L159.06 173.25L150.807 189L142.554 140.175L134.301 159.075L126.048 124.425L117.795 173.25L109.542 164.85L101.289 190.575L93.0359 198.45L84.7829 185.85L76.5299 184.275L68.2769 165.375L60.0239 160.65L51.7709 176.925L43.5179 165.375L35.2649 203.7L27.0119 191.625L18.7589 211.05L10.506 203.7L2.25295 224.175L-6.00005 206.85Z" fill="url(#paint0_linear_524_28997)"/>
<path d="M-6.00005 249.9V253.05H-2.85005V249.9H-6.00005ZM-6.00005 206.85L-3.15623 205.496L-9.15005 206.85H-6.00005ZM-12.3 249.9V246.75H-15.45V249.9H-12.3ZM-12.3 379.05H-15.45V382.2H-12.3V379.05ZM406.65 379.05V382.2H409.8V379.05H406.65ZM406.65 271.95H409.8V271.95L406.65 271.95ZM406.65 249.9H403.5H406.65ZM406.65 100.275H409.8V88.2302L403.903 98.7333L406.65 100.275ZM398.397 114.975L395.65 116.517L398.397 121.41L401.144 116.517L398.397 114.975ZM390.144 100.275L392.891 98.7333L390.144 93.8409L387.397 98.7333L390.144 100.275ZM381.891 114.975L378.847 115.786L380.843 123.277L384.638 116.517L381.891 114.975ZM373.638 84.0004L376.682 83.1894L370.555 83.3542L373.638 84.0004ZM365.385 123.375L362.595 124.837L366.668 132.61L368.468 124.022L365.385 123.375ZM357.132 107.625L354.127 108.57L354.211 108.838L354.342 109.087L357.132 107.625ZM348.879 81.3754L351.884 80.4306L350.324 75.4674L346.649 79.1506L348.879 81.3754ZM339.975 90.3004L336.888 90.9299L338.061 96.6789L342.205 92.5252L339.975 90.3004ZM332.373 53.0254L335.459 52.3959L329.278 52.4392L332.373 53.0254ZM324.12 96.6004L321.351 98.1015L325.568 105.882L327.215 97.1866L324.12 96.6004ZM315.867 81.3754L318.636 79.8742L315.242 73.6127L312.893 80.3365L315.867 81.3754ZM307.614 105L309.861 107.208L310.355 106.705L310.588 106.039L307.614 105ZM299.361 113.4L297.186 115.679L299.432 117.822L301.608 115.608L299.361 113.4ZM291.108 105.525L293.283 103.246L290.656 100.74L288.545 103.694L291.108 105.525ZM282.855 117.075L280.292 115.244L279.937 115.741L279.793 116.335L282.855 117.075ZM274.602 151.2L271.703 152.432L275.426 161.195L277.664 151.941L274.602 151.2ZM266.349 131.775L269.248 130.544L266.062 123.045L263.375 130.737L266.349 131.775ZM258.096 155.4L255.849 157.608L259.399 161.221L261.07 156.439L258.096 155.4ZM249.843 147L252.09 144.793L248.436 141.074L246.844 146.038L249.843 147ZM241.59 172.725L239.277 174.864L242.941 178.826L244.589 173.688L241.59 172.725ZM233.337 163.8L235.65 161.662L231.986 157.7L230.338 162.838L233.337 163.8ZM225.084 189.525L222.005 190.189L224.485 201.705L228.083 190.488L225.084 189.525ZM216.831 151.2L219.91 150.537L219.847 150.244L219.73 149.969L216.831 151.2ZM208.578 131.775L211.477 130.544L207.5 121.182L205.49 131.153L208.578 131.775ZM200.325 172.725L198.414 175.229L202.418 178.286L203.413 173.348L200.325 172.725ZM192.072 166.425L189.303 167.927L189.624 168.52L190.161 168.929L192.072 166.425ZM183.819 151.2L186.588 149.699L182.886 142.869L180.786 150.349L183.819 151.2ZM175.566 180.6L177.993 182.608L178.418 182.094L178.599 181.452L175.566 180.6ZM167.313 190.575L164.469 191.93L166.592 196.388L169.74 192.583L167.313 190.575ZM159.06 173.25L161.904 171.896L159.194 166.208L156.27 171.788L159.06 173.25ZM150.807 189L147.701 189.525L149.259 198.742L153.597 190.462L150.807 189ZM142.554 140.175L145.66 139.65L143.898 129.226L139.667 138.915L142.554 140.175ZM134.301 159.075L131.237 159.805L133.419 168.967L137.188 160.336L134.301 159.075ZM126.048 124.425L129.112 123.696L122.942 123.9L126.048 124.425ZM117.795 173.25L115.548 175.458L119.872 179.86L120.901 173.775L117.795 173.25ZM109.542 164.85L111.789 162.643L108.135 158.924L106.543 163.888L109.542 164.85ZM101.289 190.575L103.464 192.854L104.043 192.301L104.288 191.538L101.289 190.575ZM93.0359 198.45L90.4009 200.176L92.4736 203.341L95.2105 200.729L93.0359 198.45ZM84.7829 185.85L87.418 184.124L86.6859 183.007L85.3734 182.756L84.7829 185.85ZM76.5299 184.275L73.6432 185.536L74.3079 187.058L75.9395 187.37L76.5299 184.275ZM68.2769 165.375L71.1637 164.115L70.7466 163.16L69.842 162.642L68.2769 165.375ZM60.0239 160.65L61.589 157.917L58.7132 156.27L57.2145 159.226L60.0239 160.65ZM51.7709 176.925L49.208 178.757L52.2297 182.986L54.5804 178.35L51.7709 176.925ZM43.5179 165.375L46.0809 163.544L41.9385 157.747L40.4385 164.712L43.5179 165.375ZM35.2649 203.7L32.6643 205.478L36.801 211.53L38.3444 204.364L35.2649 203.7ZM27.0119 191.625L29.6126 189.848L26.364 185.095L24.1128 190.394L27.0119 191.625ZM18.7589 211.05L16.664 213.403L19.9418 216.322L21.6581 212.282L18.7589 211.05ZM10.506 203.7L12.6009 201.348L9.25792 198.371L7.58436 202.523L10.506 203.7ZM2.25295 224.175L-0.59087 225.53L2.4934 232.005L5.17454 225.353L2.25295 224.175ZM-6.00005 249.9H-2.85005V206.85H-6.00005H-9.15005V249.9H-6.00005ZM-12.3 249.9V253.05H-6.00005V249.9V246.75H-12.3V249.9ZM-12.3 379.05H-9.15005V249.9H-12.3H-15.45V379.05H-12.3ZM406.65 379.05V375.9H-12.3V379.05V382.2H406.65V379.05ZM406.65 271.95H403.5L403.5 379.05H406.65H409.8L409.8 271.95H406.65ZM406.65 249.9H403.5L403.5 271.95H406.65L409.8 271.95L409.8 249.9L406.65 249.9ZM406.65 100.275H403.5L403.5 249.9H406.65H409.8L409.8 100.275H406.65ZM398.397 114.975L401.144 116.517L409.397 101.817L406.65 100.275L403.903 98.7333L395.65 113.433L398.397 114.975ZM390.144 100.275L387.397 101.817L395.65 116.517L398.397 114.975L401.144 113.433L392.891 98.7333L390.144 100.275ZM381.891 114.975L384.638 116.517L392.891 101.817L390.144 100.275L387.397 98.7333L379.144 113.433L381.891 114.975ZM373.638 84.0004L370.594 84.8114L378.847 115.786L381.891 114.975L384.935 114.164L376.682 83.1894L373.638 84.0004ZM365.385 123.375L368.468 124.022L376.721 84.6466L373.638 84.0004L370.555 83.3542L362.302 122.729L365.385 123.375ZM357.132 107.625L354.342 109.087L362.595 124.837L365.385 123.375L368.175 121.913L359.922 106.163L357.132 107.625ZM348.879 81.3754L345.874 82.3202L354.127 108.57L357.132 107.625L360.137 106.681L351.884 80.4306L348.879 81.3754ZM339.975 90.3004L342.205 92.5252L351.109 83.6002L348.879 81.3754L346.649 79.1506L337.745 88.0756L339.975 90.3004ZM332.373 53.0254L329.286 53.6549L336.888 90.9299L339.975 90.3004L343.061 89.6709L335.459 52.3959L332.373 53.0254ZM324.12 96.6004L327.215 97.1866L335.468 53.6116L332.373 53.0254L329.278 52.4392L321.025 96.0142L324.12 96.6004ZM315.867 81.3754L313.098 82.8765L321.351 98.1015L324.12 96.6004L326.889 95.0992L318.636 79.8742L315.867 81.3754ZM307.614 105L310.588 106.039L318.841 82.4142L315.867 81.3754L312.893 80.3365L304.64 103.962L307.614 105ZM299.361 113.4L301.608 115.608L309.861 107.208L307.614 105L305.367 102.793L297.114 111.193L299.361 113.4ZM291.108 105.525L288.933 107.804L297.186 115.679L299.361 113.4L301.536 111.121L293.283 103.246L291.108 105.525ZM282.855 117.075L285.418 118.907L293.671 107.357L291.108 105.525L288.545 103.694L280.292 115.244L282.855 117.075ZM274.602 151.2L277.664 151.941L285.917 117.816L282.855 117.075L279.793 116.335L271.54 150.46L274.602 151.2ZM266.349 131.775L263.45 133.007L271.703 152.432L274.602 151.2L277.501 149.969L269.248 130.544L266.349 131.775ZM258.096 155.4L261.07 156.439L269.323 132.814L266.349 131.775L263.375 130.737L255.122 154.362L258.096 155.4ZM249.843 147L247.596 149.208L255.849 157.608L258.096 155.4L260.343 153.193L252.09 144.793L249.843 147ZM241.59 172.725L244.589 173.688L252.842 147.963L249.843 147L246.844 146.038L238.591 171.763L241.59 172.725ZM233.337 163.8L231.024 165.939L239.277 174.864L241.59 172.725L243.903 170.587L235.65 161.662L233.337 163.8ZM225.084 189.525L228.083 190.488L236.336 164.763L233.337 163.8L230.338 162.838L222.085 188.563L225.084 189.525ZM216.831 151.2L213.752 151.864L222.005 190.189L225.084 189.525L228.163 188.862L219.91 150.537L216.831 151.2ZM208.578 131.775L205.679 133.007L213.932 152.432L216.831 151.2L219.73 149.969L211.477 130.544L208.578 131.775ZM200.325 172.725L203.413 173.348L211.666 132.398L208.578 131.775L205.49 131.153L197.237 172.103L200.325 172.725ZM192.072 166.425L190.161 168.929L198.414 175.229L200.325 172.725L202.236 170.222L193.983 163.922L192.072 166.425ZM183.819 151.2L181.05 152.702L189.303 167.927L192.072 166.425L194.841 164.924L186.588 149.699L183.819 151.2ZM175.566 180.6L178.599 181.452L186.852 152.052L183.819 151.2L180.786 150.349L172.533 179.749L175.566 180.6ZM167.313 190.575L169.74 192.583L177.993 182.608L175.566 180.6L173.139 178.592L164.886 188.567L167.313 190.575ZM159.06 173.25L156.216 174.605L164.469 191.93L167.313 190.575L170.157 189.221L161.904 171.896L159.06 173.25ZM150.807 189L153.597 190.462L161.85 174.712L159.06 173.25L156.27 171.788L148.017 187.538L150.807 189ZM142.554 140.175L139.448 140.7L147.701 189.525L150.807 189L153.913 188.475L145.66 139.65L142.554 140.175ZM134.301 159.075L137.188 160.336L145.441 141.436L142.554 140.175L139.667 138.915L131.414 157.815L134.301 159.075ZM126.048 124.425L122.984 125.155L131.237 159.805L134.301 159.075L137.365 158.346L129.112 123.696L126.048 124.425ZM117.795 173.25L120.901 173.775L129.154 124.95L126.048 124.425L122.942 123.9L114.689 172.725L117.795 173.25ZM109.542 164.85L107.295 167.058L115.548 175.458L117.795 173.25L120.042 171.043L111.789 162.643L109.542 164.85ZM101.289 190.575L104.288 191.538L112.541 165.813L109.542 164.85L106.543 163.888L98.2895 189.613L101.289 190.575ZM93.0359 198.45L95.2105 200.729L103.464 192.854L101.289 190.575L99.1144 188.296L90.8614 196.171L93.0359 198.45ZM84.7829 185.85L82.1479 187.576L90.4009 200.176L93.0359 198.45L95.671 196.724L87.418 184.124L84.7829 185.85ZM76.5299 184.275L75.9395 187.37L84.1925 188.945L84.7829 185.85L85.3734 182.756L77.1204 181.181L76.5299 184.275ZM68.2769 165.375L65.3902 166.636L73.6432 185.536L76.5299 184.275L79.4167 183.015L71.1637 164.115L68.2769 165.375ZM60.0239 160.65L58.4589 163.384L66.7119 168.109L68.2769 165.375L69.842 162.642L61.589 157.917L60.0239 160.65ZM51.7709 176.925L54.5804 178.35L62.8334 162.075L60.0239 160.65L57.2145 159.226L48.9615 175.501L51.7709 176.925ZM43.5179 165.375L40.955 167.207L49.208 178.757L51.7709 176.925L54.3339 175.094L46.0809 163.544L43.5179 165.375ZM35.2649 203.7L38.3444 204.364L46.5974 166.039L43.5179 165.375L40.4385 164.712L32.1855 203.037L35.2649 203.7ZM27.0119 191.625L24.4113 193.403L32.6643 205.478L35.2649 203.7L37.8656 201.923L29.6126 189.848L27.0119 191.625ZM18.7589 211.05L21.6581 212.282L29.9111 192.857L27.0119 191.625L24.1128 190.394L15.8598 209.819L18.7589 211.05ZM10.506 203.7L8.41097 206.053L16.664 213.403L18.7589 211.05L20.8539 208.698L12.6009 201.348L10.506 203.7ZM2.25295 224.175L5.17454 225.353L13.4275 204.878L10.506 203.7L7.58436 202.523L-0.668642 222.998L2.25295 224.175ZM-6.00005 206.85L-8.84387 208.205L-0.59087 225.53L2.25295 224.175L5.09677 222.821L-3.15623 205.496L-6.00005 206.85Z" fill="#0267FF" mask="url(#path-7-inside-1_524_28997)"/>
</g>
<defs>
<linearGradient id="paint0_linear_524_28997" x1="199.443" y1="88.8226" x2="199.443" y2="370.861" gradientUnits="userSpaceOnUse">
<stop stop-color="#061033"/>
<stop offset="1" stop-color="#171D33" stop-opacity="0"/>
</linearGradient>
<clipPath id="clip0_524_28997">
<rect width="393.75" height="368.55" fill="white" transform="translate(0.299988)"/>
</clipPath>
</defs>
</svg>
